<svg xmlns="http://www.w3.org/2000/svg" xmlns:xlink="http://www.w3.org/1999/xlink" width="500" zoomAndPan="magnify" viewBox="0 0 375 374.999991" height="500" preserveAspectRatio="xMidYMid meet" version="1.0"><path fill="#217dea" d="M 219.039062 272.335938 C 219.039062 272.335938 275.300781 216.023438 297.226562 194.085938 C 299.050781 192.261719 299.960938 189.863281 299.960938 187.460938 C 299.960938 185.0625 299.050781 182.675781 297.226562 180.835938 C 275.3125 158.914062 219.039062 102.613281 219.039062 102.613281 C 217.238281 100.800781 214.863281 99.898438 212.488281 99.898438 C 210.074219 99.898438 207.675781 100.824219 205.835938 102.664062 C 202.175781 106.3125 202.148438 112.238281 205.789062 115.863281 L 268.011719 178.085938 L 84.363281 178.085938 C 79.1875 178.085938 74.988281 182.289062 74.988281 187.460938 C 74.988281 192.636719 79.1875 196.835938 84.363281 196.835938 L 268.011719 196.835938 L 205.773438 259.074219 C 202.164062 262.6875 202.199219 268.601562 205.851562 272.25 C 207.699219 274.101562 210.113281 275.023438 212.511719 275.023438 C 214.886719 275.023438 217.238281 274.125 219.039062 272.335938 Z M 219.039062 272.335938 " fill-opacity="1" fill-rule="nonzero"/></svg>