<svg xmlns="http://www.w3.org/2000/svg" xmlns:xlink="http://www.w3.org/1999/xlink" width="500" zoomAndPan="magnify" viewBox="0 0 375 374.999991" height="500" preserveAspectRatio="xMidYMid meet" version="1.0"><defs><clipPath id="d3eb700c29"><path d="M 37.5 37.5 L 337.5 37.5 L 337.5 337.5 L 37.5 337.5 Z M 37.5 37.5 " clip-rule="nonzero"/></clipPath></defs><g clip-path="url(#d3eb700c29)"><path fill="#217dea" d="M 187.5 37.5 C 104.800781 37.5 37.503906 104.785156 37.503906 187.496094 C 37.503906 270.203125 104.796875 337.5 187.5 337.5 C 270.21875 337.5 337.496094 270.207031 337.496094 187.496094 C 337.496094 104.785156 270.222656 37.5 187.5 37.5 Z M 252.417969 156.761719 L 173.859375 235.320312 C 171.5 237.675781 168.390625 238.867188 165.3125 238.867188 C 162.210938 238.867188 159.128906 237.679688 156.761719 235.320312 L 122.597656 201.15625 C 117.875 196.425781 117.875 188.78125 122.597656 184.058594 C 127.320312 179.335938 134.96875 179.335938 139.691406 184.058594 L 165.3125 209.6875 L 235.335938 139.660156 C 240.046875 134.945312 247.695312 134.945312 252.417969 139.660156 C 257.140625 144.390625 257.140625 152.039062 252.417969 156.761719 Z M 252.417969 156.761719 " fill-opacity="1" fill-rule="nonzero"/></g></svg>