<svg xmlns="http://www.w3.org/2000/svg" xmlns:xlink="http://www.w3.org/1999/xlink" width="500" zoomAndPan="magnify" viewBox="0 0 375 374.999991" height="500" preserveAspectRatio="xMidYMid meet" version="1.0"><defs><clipPath id="154e9aebbc"><path d="M 37.5 78.964844 L 337.5 78.964844 L 337.5 295.714844 L 37.5 295.714844 Z M 37.5 78.964844 " clip-rule="nonzero"/></clipPath></defs><g clip-path="url(#154e9aebbc)"><path fill="#217dea" d="M 245.773438 120.015625 C 277.457031 96.039062 323.632812 123.992188 323.632812 153.261719 C 323.632812 172.167969 316.386719 179.582031 305.167969 187.484375 C 361.757812 217.753906 336.144531 284.710938 286.777344 296.003906 L 114.347656 296.003906 C 33.367188 296.003906 3.410156 186.265625 89.636719 159.675781 C 73.464844 95.207031 199.84375 37.007812 245.773438 120.015625 Z M 182.71875 255.613281 L 192.71875 204.730469 L 202.867188 220.046875 C 224.722656 211.265625 237.015625 196.777344 238.820312 174.53125 C 256.773438 205.925781 245.894531 234.097656 223.113281 250.5625 L 233.480469 266.148438 Z M 198.160156 144.726562 L 188.160156 195.605469 L 178.011719 180.289062 C 156.15625 189.070312 143.863281 203.558594 142.058594 225.804688 C 124.105469 194.410156 134.984375 166.238281 157.765625 149.773438 L 147.398438 134.1875 Z M 198.160156 144.726562 " fill-opacity="1" fill-rule="nonzero"/></g></svg>