<svg xmlns="http://www.w3.org/2000/svg" xmlns:xlink="http://www.w3.org/1999/xlink" width="500" zoomAndPan="magnify" viewBox="0 0 375 374.999991" height="500" preserveAspectRatio="xMidYMid meet" version="1.0"><defs><clipPath id="a5b1f9b32f"><path d="M 37.5 63.109375 L 337.5 63.109375 L 337.5 312 L 37.5 312 Z M 37.5 63.109375 " clip-rule="nonzero"/></clipPath></defs><g clip-path="url(#a5b1f9b32f)"><path fill="#217dea" d="M 147.289062 94.859375 L 105.296875 94.859375 L 37.5 184.042969 L 105.296875 273.226562 L 147.289062 273.226562 L 79.492188 184.042969 Z M 227.710938 94.859375 L 269.703125 94.859375 L 337.5 184.042969 L 269.703125 273.226562 L 227.710938 273.226562 L 295.507812 184.042969 Z M 208.8125 63.609375 L 223.363281 67.003906 C 225.660156 67.539062 227.074219 69.835938 226.5625 72.128906 L 171.628906 308.1875 C 171.09375 310.460938 168.796875 311.898438 166.503906 311.386719 L 151.976562 307.992188 C 149.683594 307.457031 148.265625 305.160156 148.777344 302.867188 L 203.710938 66.808594 C 204.25 64.535156 206.542969 63.097656 208.8125 63.609375 Z M 208.8125 63.609375 " fill-opacity="1" fill-rule="nonzero"/></g></svg>