<svg xmlns="http://www.w3.org/2000/svg" xmlns:xlink="http://www.w3.org/1999/xlink" width="500" zoomAndPan="magnify" viewBox="0 0 375 374.999991" height="500" preserveAspectRatio="xMidYMid meet" version="1.0"><defs><clipPath id="bb15cad18a"><path d="M 37.5 47 L 337.5 47 L 337.5 328 L 37.5 328 Z M 37.5 47 " clip-rule="nonzero"/></clipPath></defs><g clip-path="url(#bb15cad18a)"><path fill="#217dea" d="M 316.949219 80.183594 C 297.855469 58.9375 275.257812 47.714844 251.601562 47.714844 C 225.21875 47.714844 201.425781 63.796875 187.503906 90.367188 C 173.613281 63.796875 150 47.714844 123.882812 47.714844 C 100.222656 47.714844 78.25 58.628906 58.558594 80.152344 C 35.480469 105.398438 22.453125 162.734375 67.796875 205.609375 C 88.722656 225.390625 183.171875 324.730469 184.121094 325.730469 C 185.066406 326.71875 186.375 327.285156 187.738281 327.285156 L 187.742188 327.285156 C 189.109375 327.285156 190.414062 326.726562 191.355469 325.742188 C 192.3125 324.742188 287.015625 225.617188 307.730469 205.570312 C 352.207031 162.507812 339.523438 105.292969 316.949219 80.183594 Z M 316.949219 80.183594 " fill-opacity="1" fill-rule="nonzero"/></g></svg>