<svg xmlns="http://www.w3.org/2000/svg" xmlns:xlink="http://www.w3.org/1999/xlink" width="500" zoomAndPan="magnify" viewBox="0 0 375 374.999991" height="500" preserveAspectRatio="xMidYMid meet" version="1.0"><path fill="#217dea" d="M 270.101562 291.679688 L 104.980469 291.679688 C 110.816406 282.941406 120.046875 277.054688 130.429688 275.445312 C 146.902344 272.902344 170.449219 267.976562 172.480469 260.429688 C 173.050781 258.296875 172.925781 256.117188 172.328125 253.984375 L 202.757812 253.984375 C 202.160156 256.117188 202.027344 258.296875 202.605469 260.429688 C 204.636719 267.976562 228.183594 272.902344 244.65625 275.445312 C 255.039062 277.054688 264.265625 282.941406 270.101562 291.679688 Z M 270.101562 291.679688 " fill-opacity="1" fill-rule="nonzero"/><path fill="#217dea" d="M 107.347656 92.019531 L 107.347656 113.859375 L 267.738281 113.859375 L 267.738281 92.019531 C 267.738281 87.070312 263.6875 83.019531 258.738281 83.019531 L 116.347656 83.019531 C 111.398438 83.019531 107.347656 87.070312 107.347656 92.019531 Z M 239.980469 98.441406 C 239.980469 96.378906 241.667969 94.691406 243.730469 94.691406 L 252.128906 94.691406 C 254.191406 94.691406 255.878906 96.378906 255.878906 98.441406 C 255.878906 100.503906 254.191406 102.191406 252.128906 102.191406 L 243.730469 102.191406 C 241.667969 102.191406 239.980469 100.503906 239.980469 98.441406 Z M 214.929688 98.441406 C 214.929688 96.378906 216.617188 94.691406 218.679688 94.691406 L 227.082031 94.691406 C 229.144531 94.691406 230.832031 96.378906 230.832031 98.441406 C 230.832031 100.503906 229.144531 102.191406 227.082031 102.191406 L 218.679688 102.191406 C 216.617188 102.191406 214.929688 100.503906 214.929688 98.441406 Z M 189.878906 98.441406 C 189.878906 96.378906 191.566406 94.691406 193.628906 94.691406 L 202.03125 94.691406 C 204.09375 94.691406 205.78125 96.378906 205.78125 98.441406 C 205.78125 100.503906 204.09375 102.191406 202.03125 102.191406 L 193.628906 102.191406 C 191.566406 102.191406 189.878906 100.503906 189.878906 98.441406 Z M 189.878906 98.441406 " fill-opacity="1" fill-rule="nonzero"/><path fill="#217dea" d="M 282.875 100.6875 L 275.238281 100.6875 L 275.238281 113.859375 C 275.238281 113.875 275.238281 113.886719 275.238281 113.902344 C 275.222656 116.375 275.222656 118.84375 275.238281 121.320312 C 275.238281 121.332031 275.238281 121.347656 275.238281 121.359375 L 275.238281 214.535156 C 275.238281 223.644531 267.847656 231.035156 258.738281 231.035156 L 116.347656 231.035156 C 107.238281 231.035156 99.847656 223.644531 99.847656 214.535156 L 99.847656 121.359375 C 99.847656 121.347656 99.847656 121.332031 99.847656 121.320312 C 99.863281 118.84375 99.863281 116.375 99.847656 113.902344 C 99.847656 113.886719 99.847656 113.875 99.847656 113.859375 L 99.847656 100.6875 L 92.210938 100.6875 C 87.242188 100.6875 83.210938 104.71875 83.210938 109.6875 L 83.210938 237.480469 C 83.210938 242.453125 87.242188 246.480469 92.210938 246.480469 L 282.875 246.480469 C 287.84375 246.480469 291.875 242.453125 291.875 237.480469 L 291.875 109.6875 C 291.875 104.71875 287.84375 100.6875 282.875 100.6875 Z M 282.875 100.6875 " fill-opacity="1" fill-rule="nonzero"/><path fill="#217dea" d="M 223.351562 177.484375 L 218.609375 177.484375 L 218.609375 185.195312 L 223.351562 185.195312 C 224.4375 185.195312 225.351562 184.828125 226.09375 184.089844 C 226.832031 183.351562 227.203125 182.429688 227.203125 181.316406 C 227.203125 180.269531 226.832031 179.367188 226.09375 178.613281 C 225.351562 177.859375 224.4375 177.484375 223.351562 177.484375 Z M 223.351562 177.484375 " fill-opacity="1" fill-rule="nonzero"/><path fill="#217dea" d="M 107.347656 121.359375 L 107.347656 214.53125 C 107.347656 219.496094 111.386719 223.53125 116.347656 223.53125 L 258.738281 223.53125 C 263.699219 223.53125 267.738281 219.496094 267.738281 214.53125 C 267.738281 214.53125 267.738281 121.363281 267.738281 121.359375 Z M 120.773438 138.929688 L 129.171875 138.929688 C 131.234375 138.929688 132.921875 140.617188 132.921875 142.679688 C 132.921875 144.742188 131.234375 146.429688 129.171875 146.429688 L 120.773438 146.429688 C 118.710938 146.429688 117.023438 144.742188 117.023438 142.679688 C 117.023438 140.617188 118.710938 138.929688 120.773438 138.929688 Z M 136.082031 198.117188 C 137.546875 199.582031 137.546875 201.953125 136.082031 203.417969 C 134.617188 204.882812 132.242188 204.882812 130.777344 203.417969 L 118.121094 190.761719 C 116.65625 189.296875 116.65625 186.921875 118.121094 185.457031 L 130.777344 172.800781 C 132.242188 171.335938 134.617188 171.335938 136.082031 172.800781 C 137.546875 174.265625 137.546875 176.640625 136.082031 178.105469 L 126.078125 188.109375 Z M 173.519531 193.667969 C 172.667969 195.648438 171.507812 197.375 170.035156 198.847656 C 168.558594 200.324219 166.832031 201.476562 164.851562 202.3125 C 162.871094 203.148438 160.75 203.566406 158.492188 203.566406 C 156.230469 203.566406 154.101562 203.148438 152.105469 202.3125 C 150.109375 201.476562 148.375 200.332031 146.898438 198.875 C 145.425781 197.417969 144.253906 195.707031 143.386719 193.742188 C 142.519531 191.777344 142.085938 189.664062 142.085938 187.40625 C 142.085938 185.210938 142.496094 183.125 143.3125 181.144531 C 144.132812 179.164062 145.269531 177.417969 146.726562 175.914062 C 148.183594 174.40625 149.894531 173.210938 151.859375 172.328125 C 153.824219 171.441406 155.953125 171 158.246094 171 C 160.601562 171 162.789062 171.433594 164.804688 172.300781 C 166.816406 173.171875 168.566406 174.339844 170.058594 175.8125 C 171.546875 177.289062 172.710938 179.015625 173.546875 180.996094 C 174.378906 182.976562 174.796875 185.082031 174.796875 187.308594 C 174.796875 189.566406 174.371094 191.6875 173.519531 193.667969 Z M 208.6875 193.667969 C 207.835938 195.648438 206.675781 197.375 205.199219 198.847656 C 203.726562 200.324219 202 201.476562 200.019531 202.3125 C 198.039062 203.148438 195.917969 203.566406 193.65625 203.566406 C 191.398438 203.566406 189.269531 203.148438 187.273438 202.3125 C 185.273438 201.476562 183.539062 200.332031 182.066406 198.875 C 180.59375 197.417969 179.421875 195.707031 178.554688 193.742188 C 177.6875 191.777344 177.253906 189.664062 177.253906 187.40625 C 177.253906 185.210938 177.660156 183.125 178.480469 181.144531 C 179.300781 179.164062 180.4375 177.417969 181.894531 175.914062 C 183.351562 174.40625 185.0625 173.210938 187.027344 172.328125 C 188.992188 171.441406 191.121094 171 193.414062 171 C 195.769531 171 197.957031 171.433594 199.96875 172.300781 C 201.984375 173.171875 203.734375 174.339844 205.226562 175.8125 C 206.714844 177.289062 207.878906 179.015625 208.710938 180.996094 C 209.546875 182.976562 209.964844 185.082031 209.964844 187.308594 C 209.964844 189.566406 209.539062 191.6875 208.6875 193.667969 Z M 232.234375 185.121094 C 231.726562 186.285156 231.027344 187.308594 230.140625 188.191406 C 229.253906 189.074219 228.21875 189.773438 227.035156 190.277344 C 225.851562 190.785156 224.605469 191.039062 223.292969 191.039062 L 218.609375 191.039062 L 218.609375 199.929688 C 218.609375 201.894531 217.652344 202.878906 215.734375 202.878906 C 213.789062 202.878906 212.8125 201.894531 212.8125 199.929688 L 212.8125 175.125 C 212.8125 172.835938 213.976562 171.6875 216.300781 171.6875 L 223.324219 171.6875 C 224.632812 171.6875 225.878906 171.941406 227.058594 172.449219 C 228.234375 172.957031 229.265625 173.652344 230.152344 174.535156 C 231.035156 175.421875 231.730469 176.453125 232.238281 177.632812 C 232.746094 178.808594 233 180.054688 233 181.363281 C 233 182.707031 232.746094 183.960938 232.234375 185.121094 Z M 256.964844 190.761719 L 244.308594 203.417969 C 242.84375 204.882812 240.46875 204.882812 239.003906 203.417969 C 237.539062 201.953125 237.539062 199.582031 239.003906 198.117188 L 249.007812 188.109375 L 239.003906 178.105469 C 237.539062 176.640625 237.539062 174.265625 239.003906 172.800781 C 240.46875 171.335938 242.84375 171.335938 244.308594 172.800781 L 256.964844 185.457031 C 258.429688 186.921875 258.429688 189.296875 256.964844 190.761719 Z M 254.3125 146.429688 L 145.375 146.429688 C 143.3125 146.429688 141.625 144.742188 141.625 142.679688 C 141.625 140.617188 143.3125 138.929688 145.375 138.929688 L 254.3125 138.929688 C 256.375 138.929688 258.0625 140.617188 258.0625 142.679688 C 258.0625 144.742188 256.375 146.429688 254.3125 146.429688 Z M 254.3125 146.429688 " fill-opacity="1" fill-rule="nonzero"/><path fill="#217dea" d="M 200.925781 179.890625 C 199.976562 178.941406 198.863281 178.1875 197.585938 177.632812 C 196.308594 177.074219 194.96875 176.796875 193.558594 176.796875 C 192.085938 176.796875 190.71875 177.082031 189.457031 177.65625 C 188.199219 178.230469 187.109375 179 186.191406 179.964844 C 185.273438 180.929688 184.554688 182.058594 184.03125 183.355469 C 183.507812 184.648438 183.246094 186 183.246094 187.40625 C 183.246094 188.847656 183.507812 190.1875 184.03125 191.433594 C 184.554688 192.679688 185.285156 193.773438 186.21875 194.722656 C 187.148438 195.675781 188.238281 196.417969 189.484375 196.957031 C 190.726562 197.5 192.085938 197.769531 193.558594 197.769531 C 195.035156 197.769531 196.398438 197.5 197.660156 196.957031 C 198.921875 196.417969 200.027344 195.675781 200.976562 194.722656 C 201.925781 193.773438 202.671875 192.660156 203.210938 191.382812 C 203.75 190.105469 204.019531 188.75 204.019531 187.308594 C 204.019531 185.867188 203.742188 184.507812 203.1875 183.230469 C 202.628906 181.953125 201.875 180.839844 200.925781 179.890625 Z M 200.925781 179.890625 " fill-opacity="1" fill-rule="nonzero"/><path fill="#217dea" d="M 165.761719 179.890625 C 164.808594 178.941406 163.699219 178.1875 162.421875 177.632812 C 161.144531 177.074219 159.800781 176.796875 158.394531 176.796875 C 156.917969 176.796875 155.550781 177.082031 154.292969 177.65625 C 153.03125 178.230469 151.941406 179 151.023438 179.964844 C 150.109375 180.929688 149.386719 182.058594 148.863281 183.355469 C 148.339844 184.648438 148.078125 186 148.078125 187.40625 C 148.078125 188.847656 148.339844 190.1875 148.863281 191.433594 C 149.386719 192.679688 150.117188 193.773438 151.050781 194.722656 C 151.984375 195.675781 153.070312 196.417969 154.316406 196.957031 C 155.558594 197.5 156.917969 197.769531 158.390625 197.769531 C 159.867188 197.769531 161.234375 197.5 162.492188 196.957031 C 163.753906 196.417969 164.859375 195.675781 165.808594 194.722656 C 166.757812 193.773438 167.503906 192.660156 168.042969 191.382812 C 168.585938 190.105469 168.855469 188.75 168.855469 187.308594 C 168.855469 185.867188 168.574219 184.507812 168.019531 183.230469 C 167.460938 181.953125 166.710938 180.839844 165.761719 179.890625 Z M 165.761719 179.890625 " fill-opacity="1" fill-rule="nonzero"/></svg>