<svg xmlns="http://www.w3.org/2000/svg" xmlns:xlink="http://www.w3.org/1999/xlink" width="500" zoomAndPan="magnify" viewBox="0 0 375 374.999991" height="500" preserveAspectRatio="xMidYMid meet" version="1.0"><defs><clipPath id="aaff7cd303"><path d="M 38 58.230469 L 337 58.230469 L 337 316.980469 L 38 316.980469 Z M 38 58.230469 " clip-rule="nonzero"/></clipPath></defs><g clip-path="url(#aaff7cd303)"><path fill="#217dea" d="M 179.5 187.082031 L 249.054688 142.769531 C 249.542969 142.40625 250.222656 142.476562 250.636719 142.914062 L 257.347656 150.066406 C 257.761719 150.503906 257.785156 151.210938 257.398438 151.671875 L 204.695312 212.910156 C 197.203125 220.960938 189.203125 222.542969 182.757812 220.449219 C 179.546875 219.402344 176.75 217.484375 174.609375 214.976562 C 172.46875 212.496094 170.988281 209.457031 170.378906 206.199219 C 169.1875 199.703125 171.570312 192.433594 179.449219 187.105469 Z M 85.085938 316.441406 C 77.667969 309.464844 70.980469 301.730469 65.117188 293.386719 C 59.304688 285.117188 54.320312 276.214844 50.257812 266.851562 C 46.296875 257.660156 43.230469 247.980469 41.140625 237.910156 C 39.144531 228.136719 38.074219 218.019531 38.074219 207.65625 C 38.074219 187.421875 42.113281 168.136719 49.382812 150.527344 C 56.972656 132.238281 68.0625 115.773438 81.851562 102.007812 C 95.617188 88.242188 112.082031 77.128906 130.371094 69.566406 C 147.980469 62.269531 167.265625 58.230469 187.5 58.230469 C 207.6875 58.230469 226.921875 62.269531 244.484375 69.566406 C 262.773438 77.152344 279.210938 88.292969 293.003906 102.082031 C 306.816406 115.894531 317.957031 132.386719 325.542969 150.648438 C 332.863281 168.257812 336.925781 187.519531 336.925781 207.65625 C 336.925781 217.507812 335.953125 227.136719 334.105469 236.476562 C 332.207031 246.058594 329.363281 255.324219 325.6875 264.203125 C 321.945312 273.226562 317.347656 281.835938 311.972656 289.859375 C 306.550781 297.984375 300.347656 305.546875 293.488281 312.480469 C 293.027344 312.941406 292.25 312.941406 291.785156 312.480469 L 284.320312 305.035156 C 284.175781 304.988281 284.027344 304.890625 283.90625 304.769531 L 263.089844 283.949219 C 262.625 283.488281 262.625 282.710938 263.089844 282.25 L 274.007812 271.328125 C 274.46875 270.867188 275.25 270.867188 275.710938 271.328125 L 291.785156 287.402344 C 295.191406 282.976562 298.328125 278.355469 301.148438 273.542969 C 304.191406 268.386719 306.863281 262.988281 309.175781 257.417969 C 312.289062 249.878906 314.746094 241.972656 316.398438 233.800781 C 317.957031 226.214844 318.832031 218.359375 319 210.355469 L 296.84375 210.355469 C 296.1875 210.355469 295.628906 209.820312 295.628906 209.140625 L 295.628906 193.695312 C 295.628906 193.039062 296.164062 192.480469 296.84375 192.480469 L 318.148438 192.480469 C 316.496094 178.253906 312.53125 164.683594 306.671875 152.15625 C 300.613281 139.242188 292.515625 127.472656 282.789062 117.210938 L 268.535156 131.460938 C 268.074219 131.921875 267.296875 131.921875 266.832031 131.460938 L 255.914062 120.539062 C 255.453125 120.078125 255.453125 119.300781 255.914062 118.839844 L 269.65625 105.097656 C 258.855469 96.414062 246.671875 89.386719 233.488281 84.425781 C 220.722656 79.632812 207.03125 76.765625 192.753906 76.203125 L 192.753906 95.734375 C 192.753906 96.390625 192.21875 96.949219 191.539062 96.949219 L 176.070312 96.949219 C 175.414062 96.949219 174.851562 96.414062 174.851562 95.734375 L 174.851562 76.691406 C 160.675781 78.027344 147.128906 81.652344 134.628906 87.125 C 121.714844 92.792969 109.894531 100.476562 99.558594 109.742188 L 113.832031 124.019531 C 114.296875 124.480469 114.296875 125.257812 113.832031 125.722656 L 102.914062 136.640625 C 102.449219 137.101562 101.671875 137.101562 101.210938 136.640625 L 87.105469 122.535156 C 78.035156 133.234375 70.617188 145.421875 65.3125 158.675781 C 60.207031 171.566406 57.019531 185.402344 56.167969 199.851562 L 78.128906 199.851562 C 78.789062 199.851562 79.347656 200.386719 79.347656 201.066406 L 79.347656 216.535156 C 79.347656 217.191406 78.8125 217.75 78.128906 217.75 L 56.316406 217.75 C 56.851562 224.902344 57.96875 231.855469 59.597656 238.617188 C 61.347656 245.9375 63.734375 253.015625 66.675781 259.824219 C 69.230469 265.734375 72.195312 271.402344 75.527344 276.800781 C 78.664062 281.882812 82.144531 286.746094 85.9375 291.320312 L 103.546875 273.710938 C 104.007812 273.25 104.785156 273.25 105.246094 273.710938 L 116.167969 284.632812 C 116.628906 285.09375 116.628906 285.871094 116.167969 286.335938 C 106.097656 296.402344 96.492188 306.058594 86.765625 316.394531 C 86.328125 316.878906 85.574219 316.90625 85.085938 316.441406 Z M 85.085938 316.441406 " fill-opacity="1" fill-rule="nonzero"/></g></svg>