<svg xmlns="http://www.w3.org/2000/svg" xmlns:xlink="http://www.w3.org/1999/xlink" width="500" zoomAndPan="magnify" viewBox="0 0 375 374.999991" height="500" preserveAspectRatio="xMidYMid meet" version="1.0"><defs><clipPath id="5a391d2438"><path d="M 216 132 L 337.5 132 L 337.5 253 L 216 253 Z M 216 132 " clip-rule="nonzero"/></clipPath><clipPath id="bdd90f65f5"><path d="M 74 73.5 L 208 73.5 L 208 207 L 74 207 Z M 74 73.5 " clip-rule="nonzero"/></clipPath><clipPath id="656571eaf9"><path d="M 37.5 223 L 247 223 L 247 301.5 L 37.5 301.5 Z M 37.5 223 " clip-rule="nonzero"/></clipPath></defs><g clip-path="url(#5a391d2438)"><path fill="#217dea" d="M 294.128906 134.519531 C 293.125 134.226562 292.113281 133.957031 291.097656 133.714844 C 290.078125 133.46875 289.054688 133.253906 288.023438 133.066406 C 286.992188 132.875 285.960938 132.710938 284.921875 132.578125 C 283.882812 132.441406 282.84375 132.332031 281.796875 132.25 C 280.753906 132.171875 279.710938 132.117188 278.664062 132.089844 C 277.617188 132.0625 276.570312 132.0625 275.523438 132.089844 C 274.476562 132.117188 273.429688 132.171875 272.386719 132.253906 C 271.34375 132.335938 270.300781 132.445312 269.261719 132.582031 C 268.226562 132.71875 267.191406 132.882812 266.160156 133.070312 C 265.132812 133.261719 264.109375 133.480469 263.089844 133.722656 C 262.070312 133.964844 261.058594 134.234375 260.054688 134.53125 C 259.050781 134.828125 258.054688 135.148438 257.066406 135.5 C 256.082031 135.847656 255.101562 136.21875 254.136719 136.617188 C 253.167969 137.019531 252.210938 137.441406 251.265625 137.890625 C 250.316406 138.339844 249.382812 138.8125 248.460938 139.308594 C 247.542969 139.808594 246.632812 140.328125 245.738281 140.875 C 244.84375 141.417969 243.964844 141.984375 243.101562 142.574219 C 242.238281 143.167969 241.386719 143.777344 240.554688 144.414062 C 239.722656 145.046875 238.90625 145.703125 238.109375 146.382812 C 237.308594 147.058594 236.53125 147.757812 235.765625 148.476562 C 235.003906 149.191406 234.261719 149.929688 233.539062 150.6875 C 232.816406 151.441406 232.109375 152.21875 231.425781 153.011719 C 230.746094 153.804688 230.082031 154.613281 229.441406 155.441406 C 228.800781 156.269531 228.179688 157.113281 227.582031 157.972656 C 226.984375 158.835938 226.410156 159.710938 225.859375 160.597656 C 225.308594 161.488281 224.78125 162.394531 224.273438 163.308594 C 223.769531 164.226562 223.289062 165.15625 222.835938 166.101562 C 222.378906 167.042969 221.945312 167.996094 221.539062 168.960938 C 221.132812 169.925781 220.753906 170.902344 220.398438 171.886719 C 220.042969 172.871094 219.710938 173.863281 219.40625 174.867188 C 219.105469 175.867188 218.824219 176.878906 218.574219 177.894531 C 218.324219 178.910156 218.097656 179.933594 217.898438 180.960938 C 217.703125 181.988281 217.53125 183.019531 217.386719 184.058594 C 217.242188 185.09375 217.125 186.136719 217.035156 187.179688 C 216.945312 188.222656 216.882812 189.265625 216.847656 190.3125 C 216.808594 191.359375 216.800781 192.40625 216.820312 193.453125 C 216.839844 194.5 216.886719 195.546875 216.957031 196.589844 C 217.03125 197.632812 217.132812 198.675781 217.261719 199.714844 C 217.386719 200.753906 217.542969 201.789062 217.722656 202.820312 C 217.90625 203.851562 218.113281 204.878906 218.347656 205.898438 C 218.582031 206.917969 218.84375 207.933594 219.132812 208.9375 C 219.417969 209.945312 219.734375 210.945312 220.074219 211.933594 C 220.414062 212.925781 220.777344 213.90625 221.167969 214.878906 C 221.558594 215.847656 221.976562 216.808594 222.417969 217.757812 C 222.855469 218.710938 223.324219 219.648438 223.8125 220.570312 C 224.300781 221.496094 224.816406 222.410156 225.351562 223.308594 C 225.890625 224.207031 226.449219 225.089844 227.03125 225.960938 C 227.617188 226.832031 228.222656 227.683594 228.851562 228.523438 C 229.476562 229.359375 230.125 230.179688 230.796875 230.984375 C 231.46875 231.789062 232.160156 232.574219 232.871094 233.34375 C 233.582031 234.113281 234.3125 234.863281 235.0625 235.589844 C 235.8125 236.320312 236.582031 237.03125 237.371094 237.722656 C 238.15625 238.414062 238.960938 239.082031 239.785156 239.730469 C 240.605469 240.378906 241.445312 241.003906 242.300781 241.609375 C 243.15625 242.210938 244.027344 242.792969 244.910156 243.355469 C 245.796875 243.914062 246.695312 244.449219 247.609375 244.960938 C 248.519531 245.472656 249.449219 245.960938 250.386719 246.425781 C 251.324219 246.890625 252.273438 247.328125 253.234375 247.742188 C 254.199219 248.15625 255.167969 248.546875 256.152344 248.910156 C 257.132812 249.273438 258.125 249.613281 259.121094 249.925781 C 260.121094 250.238281 261.128906 250.523438 262.144531 250.785156 C 263.15625 251.042969 264.175781 251.277344 265.203125 251.484375 C 266.230469 251.691406 267.261719 251.871094 268.296875 252.023438 C 269.332031 252.175781 270.371094 252.304688 271.414062 252.402344 C 272.457031 252.5 273.5 252.574219 274.546875 252.617188 C 275.59375 252.660156 276.640625 252.679688 277.6875 252.667969 C 278.734375 252.660156 279.78125 252.621094 280.824219 252.558594 C 281.871094 252.492188 282.914062 252.402344 283.953125 252.28125 C 284.992188 252.164062 286.03125 252.019531 287.0625 251.84375 C 288.09375 251.671875 289.121094 251.472656 290.144531 251.246094 C 291.167969 251.019531 292.183594 250.765625 293.191406 250.488281 C 294.203125 250.207031 295.203125 249.902344 296.195312 249.570312 C 297.1875 249.242188 298.171875 248.882812 299.148438 248.5 C 300.121094 248.117188 301.085938 247.710938 302.039062 247.277344 C 302.992188 246.84375 303.933594 246.386719 304.863281 245.90625 C 305.792969 245.425781 306.710938 244.917969 307.613281 244.390625 C 308.515625 243.859375 309.40625 243.304688 310.28125 242.730469 C 311.152344 242.15625 312.011719 241.554688 312.855469 240.9375 C 313.699219 240.316406 314.527344 239.671875 315.335938 239.007812 C 316.144531 238.34375 316.9375 237.660156 317.710938 236.957031 C 318.484375 236.25 319.242188 235.527344 319.976562 234.78125 C 320.714844 234.039062 321.429688 233.273438 322.128906 232.492188 C 322.824219 231.710938 323.5 230.914062 324.15625 230.09375 C 324.808594 229.277344 325.445312 228.445312 326.054688 227.59375 C 326.667969 226.746094 327.257812 225.878906 327.824219 225 C 328.390625 224.121094 328.933594 223.226562 329.453125 222.316406 C 329.972656 221.40625 330.46875 220.484375 330.941406 219.550781 C 331.410156 218.617188 331.859375 217.667969 332.28125 216.710938 C 332.703125 215.753906 333.101562 214.785156 333.472656 213.808594 C 333.847656 212.828125 334.191406 211.839844 334.515625 210.84375 C 334.835938 209.847656 335.128906 208.84375 335.398438 207.832031 C 335.667969 206.820312 335.90625 205.800781 336.125 204.777344 C 336.339844 203.75 336.527344 202.722656 336.6875 201.6875 C 336.851562 200.652344 336.984375 199.613281 337.09375 198.574219 C 337.199219 197.53125 337.28125 196.488281 337.335938 195.441406 C 337.386719 194.398438 337.414062 193.351562 337.414062 192.304688 C 337.421875 190.6875 337.367188 189.074219 337.242188 187.460938 C 337.121094 185.851562 336.933594 184.25 336.683594 182.652344 C 336.429688 181.054688 336.113281 179.472656 335.734375 177.902344 C 335.355469 176.332031 334.910156 174.78125 334.402344 173.246094 C 333.898438 171.710938 333.332031 170.199219 332.703125 168.710938 C 332.074219 167.222656 331.382812 165.761719 330.636719 164.328125 C 329.890625 162.898438 329.085938 161.496094 328.226562 160.128906 C 327.363281 158.761719 326.449219 157.433594 325.480469 156.140625 C 324.511719 154.847656 323.492188 153.59375 322.421875 152.382812 C 321.351562 151.171875 320.234375 150.007812 319.070312 148.886719 C 317.90625 147.769531 316.699219 146.695312 315.445312 145.675781 C 314.195312 144.652344 312.902344 143.683594 311.574219 142.765625 C 310.242188 141.847656 308.878906 140.988281 307.476562 140.179688 C 306.078125 139.375 304.648438 138.625 303.1875 137.933594 C 301.726562 137.246094 300.238281 136.613281 298.726562 136.042969 C 297.214844 135.472656 295.683594 134.964844 294.128906 134.519531 Z M 302.25 212.273438 C 301.953125 212.648438 301.625 212.988281 301.261719 213.300781 C 300.898438 213.609375 300.507812 213.882812 300.089844 214.113281 C 299.671875 214.347656 299.238281 214.539062 298.78125 214.6875 C 298.328125 214.832031 297.863281 214.933594 297.390625 214.992188 C 296.914062 215.046875 296.4375 215.054688 295.964844 215.015625 C 295.488281 214.980469 295.019531 214.894531 294.558594 214.765625 C 294.097656 214.632812 293.65625 214.460938 293.230469 214.242188 C 292.804688 214.023438 292.40625 213.765625 292.03125 213.472656 L 269.820312 195.902344 L 269.820312 162.320312 C 269.820312 161.84375 269.867188 161.371094 269.957031 160.902344 C 270.050781 160.433594 270.1875 159.976562 270.371094 159.535156 C 270.550781 159.09375 270.777344 158.675781 271.039062 158.277344 C 271.304688 157.878906 271.605469 157.511719 271.945312 157.171875 C 272.28125 156.835938 272.648438 156.535156 273.046875 156.269531 C 273.445312 156.003906 273.863281 155.777344 274.304688 155.59375 C 274.746094 155.414062 275.199219 155.273438 275.667969 155.179688 C 276.136719 155.085938 276.609375 155.039062 277.089844 155.039062 C 277.566406 155.039062 278.039062 155.085938 278.507812 155.179688 C 278.976562 155.273438 279.433594 155.410156 279.875 155.59375 C 280.316406 155.777344 280.734375 156.003906 281.132812 156.269531 C 281.53125 156.53125 281.898438 156.835938 282.234375 157.171875 C 282.574219 157.511719 282.875 157.878906 283.140625 158.277344 C 283.40625 158.671875 283.628906 159.09375 283.8125 159.535156 C 283.996094 159.976562 284.132812 160.429688 284.226562 160.898438 C 284.320312 161.371094 284.367188 161.84375 284.367188 162.320312 L 284.367188 188.886719 L 301.0625 202.078125 C 301.433594 202.375 301.773438 202.703125 302.082031 203.066406 C 302.390625 203.429688 302.660156 203.820312 302.890625 204.238281 C 303.121094 204.652344 303.308594 205.085938 303.457031 205.539062 C 303.601562 205.992188 303.703125 206.457031 303.757812 206.929688 C 303.8125 207.402344 303.820312 207.875 303.785156 208.351562 C 303.746094 208.824219 303.664062 209.292969 303.53125 209.75 C 303.402344 210.207031 303.230469 210.648438 303.015625 211.074219 C 302.800781 211.5 302.542969 211.898438 302.25 212.273438 Z M 302.25 212.273438 " fill-opacity="1" fill-rule="nonzero"/></g><g clip-path="url(#bdd90f65f5)"><path fill="#217dea" d="M 205.078125 122.65625 C 205.363281 123.703125 205.621094 124.757812 205.851562 125.820312 C 206.082031 126.878906 206.289062 127.945312 206.46875 129.015625 C 206.648438 130.085938 206.800781 131.160156 206.929688 132.238281 C 207.054688 133.316406 207.15625 134.398438 207.230469 135.480469 C 207.304688 136.566406 207.351562 137.648438 207.371094 138.734375 C 207.394531 139.820312 207.386719 140.90625 207.355469 141.992188 C 207.320312 143.078125 207.261719 144.160156 207.175781 145.242188 C 207.089844 146.324219 206.980469 147.40625 206.839844 148.480469 C 206.703125 149.558594 206.535156 150.632812 206.34375 151.699219 C 206.152344 152.769531 205.9375 153.832031 205.691406 154.890625 C 205.449219 155.949219 205.179688 157 204.882812 158.042969 C 204.589844 159.089844 204.265625 160.125 203.921875 161.15625 C 203.574219 162.183594 203.203125 163.203125 202.808594 164.214844 C 202.410156 165.226562 201.988281 166.226562 201.542969 167.21875 C 201.097656 168.207031 200.628906 169.1875 200.136719 170.152344 C 199.640625 171.121094 199.125 172.074219 198.585938 173.015625 C 198.046875 173.957031 197.480469 174.886719 196.894531 175.800781 C 196.308594 176.714844 195.703125 177.613281 195.070312 178.496094 C 194.441406 179.382812 193.789062 180.25 193.117188 181.101562 C 192.445312 181.953125 191.75 182.789062 191.039062 183.609375 C 190.324219 184.425781 189.589844 185.226562 188.839844 186.007812 C 188.085938 186.792969 187.3125 187.554688 186.523438 188.300781 C 185.734375 189.042969 184.925781 189.769531 184.097656 190.472656 C 183.273438 191.175781 182.429688 191.863281 181.570312 192.523438 C 180.710938 193.1875 179.835938 193.828125 178.945312 194.449219 C 178.050781 195.070312 177.148438 195.667969 176.226562 196.246094 C 175.304688 196.820312 174.371094 197.375 173.425781 197.902344 C 172.476562 198.433594 171.515625 198.9375 170.542969 199.421875 C 169.570312 199.90625 168.585938 200.363281 167.59375 200.796875 C 166.597656 201.234375 165.59375 201.644531 164.578125 202.027344 C 163.5625 202.414062 162.539062 202.773438 161.503906 203.109375 C 160.472656 203.441406 159.433594 203.753906 158.382812 204.035156 C 157.335938 204.320312 156.28125 204.578125 155.222656 204.808594 C 154.160156 205.042969 153.09375 205.25 152.023438 205.429688 C 150.953125 205.609375 149.878906 205.761719 148.800781 205.886719 C 147.722656 206.015625 146.640625 206.117188 145.558594 206.1875 C 144.472656 206.261719 143.390625 206.3125 142.304688 206.332031 C 141.21875 206.351562 140.132812 206.347656 139.046875 206.3125 C 137.960938 206.28125 136.878906 206.222656 135.796875 206.136719 C 134.714844 206.050781 133.632812 205.9375 132.558594 205.796875 C 131.480469 205.660156 130.40625 205.496094 129.339844 205.304688 C 128.269531 205.113281 127.207031 204.894531 126.148438 204.652344 C 125.089844 204.40625 124.039062 204.136719 122.996094 203.84375 C 121.949219 203.546875 120.914062 203.226562 119.882812 202.878906 C 118.855469 202.535156 117.835938 202.160156 116.824219 201.765625 C 115.8125 201.371094 114.8125 200.949219 113.824219 200.503906 C 112.832031 200.058594 111.855469 199.589844 110.886719 199.09375 C 109.917969 198.601562 108.964844 198.085938 108.023438 197.542969 C 107.082031 197.003906 106.152344 196.441406 105.238281 195.855469 C 104.324219 195.269531 103.425781 194.660156 102.542969 194.03125 C 101.65625 193.402344 100.789062 192.75 99.9375 192.078125 C 99.085938 191.402344 98.25 190.710938 97.429688 189.996094 C 96.613281 189.28125 95.8125 188.550781 95.03125 187.796875 C 94.25 187.042969 93.484375 186.273438 92.742188 185.480469 C 91.996094 184.691406 91.273438 183.882812 90.566406 183.058594 C 89.863281 182.230469 89.179688 181.386719 88.515625 180.527344 C 87.851562 179.667969 87.210938 178.792969 86.589844 177.902344 C 85.96875 177.011719 85.371094 176.105469 84.796875 175.183594 C 84.21875 174.265625 83.667969 173.332031 83.136719 172.382812 C 82.605469 171.433594 82.101562 170.476562 81.617188 169.503906 C 81.132812 168.53125 80.675781 167.546875 80.242188 166.550781 C 79.808594 165.554688 79.398438 164.550781 79.011719 163.535156 C 78.625 162.519531 78.265625 161.496094 77.929688 160.464844 C 77.597656 159.429688 77.289062 158.390625 77.003906 157.34375 C 76.71875 156.292969 76.460938 155.238281 76.230469 154.179688 C 75.996094 153.117188 75.792969 152.054688 75.613281 150.980469 C 75.433594 149.910156 75.277344 148.835938 75.152344 147.757812 C 75.023438 146.679688 74.925781 145.597656 74.851562 144.515625 C 74.777344 143.433594 74.730469 142.347656 74.707031 141.261719 C 74.6875 140.175781 74.695312 139.09375 74.726562 138.007812 C 74.757812 136.921875 74.816406 135.835938 74.902344 134.753906 C 74.988281 133.671875 75.101562 132.59375 75.242188 131.515625 C 75.378906 130.441406 75.542969 129.367188 75.738281 128.296875 C 75.929688 127.230469 76.144531 126.164062 76.390625 125.109375 C 76.632812 124.050781 76.902344 123 77.199219 121.953125 C 77.492188 120.910156 77.8125 119.871094 78.160156 118.84375 C 78.507812 117.8125 78.878906 116.792969 79.273438 115.78125 C 79.671875 114.773438 80.089844 113.769531 80.535156 112.78125 C 80.980469 111.789062 81.453125 110.8125 81.945312 109.84375 C 82.4375 108.878906 82.957031 107.921875 83.496094 106.980469 C 84.035156 106.039062 84.597656 105.113281 85.183594 104.199219 C 85.769531 103.285156 86.378906 102.382812 87.007812 101.5 C 87.640625 100.617188 88.289062 99.746094 88.964844 98.894531 C 89.636719 98.042969 90.328125 97.207031 91.042969 96.390625 C 91.757812 95.570312 92.488281 94.769531 93.242188 93.988281 C 93.996094 93.207031 94.769531 92.441406 95.558594 91.699219 C 96.347656 90.953125 97.15625 90.230469 97.984375 89.527344 C 98.808594 88.820312 99.652344 88.136719 100.511719 87.472656 C 101.371094 86.808594 102.246094 86.167969 103.136719 85.546875 C 104.027344 84.929688 104.933594 84.328125 105.855469 83.753906 C 106.777344 83.179688 107.710938 82.625 108.65625 82.09375 C 109.605469 81.566406 110.566406 81.058594 111.539062 80.574219 C 112.511719 80.09375 113.492188 79.632812 114.488281 79.199219 C 115.484375 78.765625 116.488281 78.355469 117.503906 77.96875 C 118.519531 77.585938 119.542969 77.226562 120.574219 76.890625 C 121.609375 76.554688 122.648438 76.246094 123.695312 75.960938 C 124.746094 75.679688 125.800781 75.421875 126.859375 75.1875 C 127.921875 74.957031 128.988281 74.75 130.058594 74.570312 C 131.128906 74.390625 132.203125 74.238281 133.28125 74.109375 C 134.359375 73.984375 135.441406 73.882812 136.523438 73.808594 C 137.605469 73.734375 138.691406 73.6875 139.777344 73.667969 C 140.863281 73.644531 141.949219 73.652344 143.03125 73.683594 C 144.117188 73.71875 145.203125 73.777344 146.285156 73.863281 C 147.367188 73.949219 148.445312 74.0625 149.523438 74.199219 C 150.601562 74.339844 151.671875 74.503906 152.742188 74.695312 C 153.808594 74.886719 154.875 75.105469 155.933594 75.347656 C 156.988281 75.589844 158.042969 75.859375 159.085938 76.15625 C 160.132812 76.453125 161.167969 76.773438 162.195312 77.117188 C 163.226562 77.464844 164.246094 77.835938 165.257812 78.234375 C 166.269531 78.628906 167.269531 79.050781 168.257812 79.496094 C 169.25 79.941406 170.226562 80.410156 171.195312 80.902344 C 172.160156 81.398438 173.117188 81.914062 174.058594 82.453125 C 175 82.996094 175.925781 83.558594 176.84375 84.144531 C 177.757812 84.730469 178.65625 85.335938 179.539062 85.96875 C 180.421875 86.597656 181.292969 87.25 182.144531 87.921875 C 182.996094 88.59375 183.832031 89.289062 184.648438 90 C 185.46875 90.714844 186.269531 91.449219 187.050781 92.203125 C 187.832031 92.953125 188.597656 93.726562 189.339844 94.515625 C 190.085938 95.308594 190.808594 96.117188 191.515625 96.941406 C 192.21875 97.765625 192.902344 98.609375 193.566406 99.46875 C 194.230469 100.328125 194.871094 101.203125 195.492188 102.097656 C 196.113281 102.988281 196.710938 103.894531 197.285156 104.8125 C 197.863281 105.734375 198.414062 106.667969 198.945312 107.617188 C 199.472656 108.5625 199.980469 109.523438 200.464844 110.496094 C 200.945312 111.46875 201.40625 112.453125 201.839844 113.445312 C 202.273438 114.441406 202.683594 115.449219 203.070312 116.460938 C 203.453125 117.476562 203.816406 118.5 204.148438 119.535156 C 204.484375 120.566406 204.792969 121.609375 205.078125 122.65625 Z M 205.078125 122.65625 " fill-opacity="1" fill-rule="nonzero"/></g><g clip-path="url(#656571eaf9)"><path fill="#217dea" d="M 225.46875 249.355469 C 221.996094 245.828125 218.230469 242.644531 214.179688 239.800781 C 210.125 236.960938 205.847656 234.507812 201.347656 232.441406 C 196.847656 230.378906 192.199219 228.734375 187.402344 227.515625 C 182.605469 226.296875 177.734375 225.523438 172.796875 225.1875 C 151.882812 223.320312 130.96875 223.351562 110.0625 225.273438 C 105.195312 225.648438 100.398438 226.457031 95.675781 227.695312 C 90.953125 228.929688 86.378906 230.574219 81.953125 232.632812 C 77.523438 234.6875 73.316406 237.121094 69.324219 239.929688 C 65.332031 242.738281 61.621094 245.878906 58.191406 249.355469 C 50.925781 256.726562 44.828125 264.960938 39.890625 274.058594 C 33.054688 286.375 42.289062 301.511719 56.355469 301.511719 L 227.304688 301.511719 C 241.398438 301.511719 250.59375 286.375 243.757812 274.058594 C 238.832031 264.960938 232.734375 256.726562 225.46875 249.355469 Z M 225.46875 249.355469 " fill-opacity="1" fill-rule="nonzero"/></g></svg>